# xmcd
#
# Track frame offsets:
#	150
#	27912
#	53880
#	72596
#	95202
#	114413
#	138313
#	161957
#	190273
#	211752
#	233797
#	255372
#	277519
#	300069
#
# Disc length: 4280 seconds
#
# Revision: 65537
# Processed by: cddbd v1.5.2PL0 Copyright (c) Steve Scherf et al.
# Submitted via: EZCDAudioConverter 8.0.2.1
#
DISCID=b910b60e
DTITLE=Quang Lê - QL Platinum. Hai Quê
DYEAR=2008
DGENRE=Miscellaneous
TTITLE0=Quang Lê - Hai quê
TTITLE1=Quang Lê, Mai Thiên Vân - Nước non ngàn dặm ra đi
TTITLE2=Quang Lê - Chuyện một chiếc cầu đã gẫy
TTITLE3=Quang Lê - Thư xuân trên vùng cao
TTITLE4=Quang Lê, Ngọc Hạ - Tình lúa duyên trăng
TTITLE5=Quang Lê - Đêm trao kỷ niệm
TTITLE6=Quang Lê - Cay đắng bờ môi
TTITLE7=Quang Lê, Như Quỳnh - Áo hoa
TTITLE8=Quang Lê - Tâm sự người hát rong
TTITLE9=Quang Lê - Giọt lệ đài trang
TTITLE10=Quang Lê - Mất nhau rồi
TTITLE11=Quang Lê, Hà Phương - Hương tóc mạ non
TTITLE12=Quang Lê - Đường về quê hương
TTITLE13=Quang Lê, Hương Thủy - Nhà anh nhà em
EXTD=
EXTT0=
EXTT1=
EXTT2=
EXTT3=
EXTT4=
EXTT5=
EXTT6=
EXTT7=
EXTT8=
EXTT9=
EXTT10=
EXTT11=
EXTT12=
EXTT13=
PLAYORDER=
